<?xml version="1.0" encoding="utf-8"?>
<!-- Generator: Adobe Illustrator 21.0.2, SVG Export Plug-In . SVG Version: 6.00 Build 0)  -->
<svg version="1.1"
	 id="svg6498" inkscape:version="0.92.1 r15371" sodipodi:docname="rw-api-icon-clean.svg" xmlns:cc="http://creativecommons.org/ns#" xmlns:dc="http://purl.org/dc/elements/1.1/" xmlns:inkscape="http://www.inkscape.org/namespaces/inkscape" xmlns:rdf="http://www.w3.org/1999/02/22-rdf-syntax-ns#" xmlns:sodipodi="http://sodipodi.sourceforge.net/DTD/sodipodi-0.dtd" xmlns:svg="http://www.w3.org/2000/svg"
	 xmlns="http://www.w3.org/2000/svg" xmlns:xlink="http://www.w3.org/1999/xlink" x="0px" y="0px" viewBox="0 0 85 85"
	 style="enable-background:new 0 0 85 85;" xml:space="preserve">
<style type="text/css">
	.st0{enable-background:new    ;}
	.st1{fill:#EB5C6D;}
	.st2{fill:#77B0C9;}
</style>
<g>
	<path d="M38.6,37.7c-0.6-0.5-1.2-0.8-1.8-1c-0.6-0.2-1.3-0.3-2-0.3c-1.7,0-3.1,0.5-4,1.6c-0.9,1.1-1.4,2.7-1.4,4.7v8.5h-2.8v-17
		h2.8v3.3c0.5-1.2,1.2-2.1,2.2-2.8c1-0.6,2.1-1,3.4-1c0.7,0,1.3,0.1,1.9,0.3s1.2,0.4,1.7,0.8V37.7z"/>
	<polygon points="39.7,34 42.5,34 45.5,47.7 47.9,39 50.3,39 52.8,47.7 55.7,34 58.5,34 54.5,51 51.8,51 49.1,41.7 46.4,51 43.7,51 
			"/>
</g>
<g>
	<g class="st0">
		<path class="st1" d="M22.3,54.5v2.2h-1c-2.5,0-4.2-0.4-5.1-1.1c-0.9-0.8-1.3-2.2-1.3-4.5v-3c0-1.1-0.3-2.1-0.9-2.9
			c-0.6-0.8-1.6-1.2-2.9-1.2H9.3v-2.2h1.9c1.4,0,2.4-0.3,3-1c0.6-0.7,0.8-1.7,0.8-3v-4c0-2.2,0.4-3.7,1.3-4.5
			c0.9-0.7,2.5-1.1,5.1-1.1h1v2.2h-1.1c-1.4,0-2.3,0.2-2.8,0.7s-0.6,1.4-0.6,2.8V38c0,1.8-0.3,3-1,3.6c-0.7,0.6-2.1,1.1-4.1,1.3
			c2,0.2,3.3,0.7,4,1.3c0.7,0.7,1.1,1.9,1.1,3.6v3.2c0,1.4,0.2,2.4,0.6,2.8s1.4,0.7,2.8,0.7H22.3z"/>
	</g>
	<g class="st0">
		<path class="st1" d="M63.8,54.5c1.4,0,2.3-0.2,2.8-0.7s0.6-1.4,0.6-2.8v-3.2c0-1.7,0.4-2.9,1.1-3.6c0.7-0.7,2.1-1.1,4-1.3
			c-2-0.3-3.4-0.7-4.1-1.3c-0.7-0.6-1-1.8-1-3.6v-4.1c0-1.4-0.2-2.4-0.6-2.8s-1.4-0.7-2.8-0.7h-1.1v-2.2h1c2.5,0,4.2,0.4,5.1,1.1
			c0.9,0.7,1.3,2.2,1.3,4.5v4c0,1.3,0.3,2.3,0.8,3c0.6,0.7,1.6,1,3,1h1.9V44h-1.9c-1.3,0-2.3,0.4-2.9,1.2C70.3,46,70,47,70,48.1v3
			c0,2.2-0.4,3.7-1.3,4.5c-0.9,0.8-2.5,1.1-5.1,1.1h-1v-2.2H63.8z"/>
	</g>
</g>
</svg>
