<svg enable-background="new 0 0 85 85" viewBox="0 0 85 85" xmlns="http://www.w3.org/2000/svg"><path d="m38.6 37.7c-.6-.5-1.2-.8-1.8-1s-1.3-.3-2-.3c-1.7 0-3.1.5-4 1.6s-1.4 2.7-1.4 4.7v8.5h-2.8v-17h2.8v3.3c.5-1.2 1.2-2.1 2.2-2.8 1-.6 2.1-1 3.4-1 .7 0 1.3.1 1.9.3s1.2.4 1.7.8z"/><path d="m39.7 34h2.8l3 13.7 2.4-8.7h2.4l2.5 8.7 2.9-13.7h2.8l-4 17h-2.7l-2.7-9.3-2.7 9.3h-2.7z"/><path d="m22.3 54.5v2.2h-1c-2.5 0-4.2-.4-5.1-1.1-.9-.8-1.3-2.2-1.3-4.5v-3c0-1.1-.3-2.1-.9-2.9s-1.6-1.2-2.9-1.2h-1.8v-2.2h1.9c1.4 0 2.4-.3 3-1s .8-1.7.8-3v-4c0-2.2.4-3.7 1.3-4.5.9-.7 2.5-1.1 5.1-1.1h1v2.2h-1.1c-1.4 0-2.3.2-2.8.7s-.6 1.4-.6 2.8v4.1c0 1.8-.3 3-1 3.6s-2.1 1.1-4.1 1.3c2 .2 3.3.7 4 1.3.7.7 1.1 1.9 1.1 3.6v3.2c0 1.4.2 2.4.6 2.8s1.4.7 2.8.7z" fill="#eb5c6d"/><path d="m63.8 54.5c1.4 0 2.3-.2 2.8-.7s.6-1.4.6-2.8v-3.2c0-1.7.4-2.9 1.1-3.6s2.1-1.1 4-1.3c-2-.3-3.4-.7-4.1-1.3s-1-1.8-1-3.6v-4.1c0-1.4-.2-2.4-.6-2.8s-1.4-.7-2.8-.7h-1.1v-2.2h1c2.5 0 4.2.4 5.1 1.1s1.3 2.2 1.3 4.5v4c0 1.3.3 2.3.8 3 .6.7 1.6 1 3 1h1.9v2.2h-1.9c-1.3 0-2.3.4-2.9 1.2-.7.8-1 1.8-1 2.9v3c0 2.2-.4 3.7-1.3 4.5s-2.5 1.1-5.1 1.1h-1v-2.2z" fill="#eb5c6d"/></svg>